<?xml version="1.0" encoding="utf-8"?>
<!-- Generator: Adobe Illustrator 21.0.0, SVG Export Plug-In . SVG Version: 6.00 Build 0)  -->
<svg version="1.1" id="Layer_1" xmlns="http://www.w3.org/2000/svg" xmlns:xlink="http://www.w3.org/1999/xlink" x="0px" y="0px"
	 viewBox="0 0 4 6" style="enable-background:new 0 0 4 6;" width="37px" xml:space="preserve">
<style type="text/css">
	.st0{fill:#D44632;fill-opacity:0.2;}
	.st1{fill:#F37336;}
	.st2{fill:#FFFFFF;}
	.st3{fill:#FF8D56;}
</style>
<g id="Pin-_x28_Marker_x29_">
	<g id="Ahamove_pin_user_ios" transform="translate(-43.000000, -12.000000)">
		<g id="user_drop-off" transform="translate(40.000000, 11.000000)">
			<g id="ic_user_pin_dropoff" transform="translate(3.000000, 1.000000)">
				<g id="Group-3" transform="translate(0.000000, 0.018403)">
					<ellipse id="Oval" class="st0" cx="2" cy="5" rx="1.4" ry="0.5"/>
					<ellipse id="Oval_1_" class="st1" cx="2" cy="5" rx="0.5" ry="0.2"/>
					<g id="Group">
						<path id="Fill-1" class="st1" d="M2,2.7C2,2.7,2,2.7,2,2.7l0,1.6L0.8,2.8C0.6,2.5,0.5,2.2,0.5,1.9c0-0.8,0.7-1.5,1.5-1.5V1
							c0,0,0,0,0,0V0.4c0.8,0,1.5,0.7,1.5,1.5c0,0.3-0.1,0.7-0.3,0.9L2,4.3V2.7z"/>
						<ellipse id="Path" class="st2" cx="2" cy="1.9" rx="0.8" ry="0.8"/>
						<ellipse id="Path_1_" class="st3" cx="2" cy="1.9" rx="0.6" ry="0.6"/>
					</g>
				</g>
			</g>
		</g>
	</g>
</g>
</svg>
